<?xml version="1.0" encoding="utf-8"?>
<!-- Generator: Adobe Illustrator 24.2.1, SVG Export Plug-In . SVG Version: 6.00 Build 0)  -->
<svg version="1.1" id="Layer_1" xmlns="http://www.w3.org/2000/svg" xmlns:xlink="http://www.w3.org/1999/xlink" x="0px" y="0px"
	 viewBox="0 0 180 181" style="enable-background:new 0 0 180 181;" xml:space="preserve">
<style type="text/css">
	.st0{opacity:0.8;fill:#A295AE;enable-background:new    ;}
	.st1{opacity:0.8;fill:#5D6F6D;enable-background:new    ;}
	.st2{opacity:0.8;fill:#8CD592;enable-background:new    ;}
	.st3{opacity:0.8;fill:#665E74;enable-background:new    ;}
	.st4{opacity:0.8;fill:#3C3647;enable-background:new    ;}
	.st5{opacity:0.8;fill:#837193;enable-background:new    ;}
	.st6{opacity:0.8;fill:#A2F4AC;enable-background:new    ;}
	.st7{opacity:0.8;fill:#7EA685;enable-background:new    ;}
	.st8{fill:#3C3647;}
</style>
<path class="st0" d="M145.8,82.1l7.9-55.7L98,34.3L90.1,90L145.8,82.1z"/>
<path class="st1" d="M34.3,97.9l-7.9,55.7l55.7-7.9L90.1,90L34.3,97.9z"/>
<path class="st2" d="M82.1,34.4l-55.7-7.9l7.9,55.7l55.7,7.9L82.1,34.4z"/>
<path class="st3" d="M98,145.8l55.7,7.9L145.8,98L90,90L98,145.8z"/>
<path class="st4" d="M56.3,135l33.8,45l33.8-45L90.1,90L56.3,135z"/>
<path class="st5" d="M135,123.7l45-33.8l-45-33.8L90,89.9L135,123.7z"/>
<path class="st6" d="M123.8,45L90,0L56.2,45L90,90L123.8,45z"/>
<path class="st7" d="M45,56.3L0,90.1l45,33.8l45-33.8L45,56.3z"/>
<path class="st8" d="M111.4,90L90,68.6L68.6,90L90,111.4L111.4,90z"/>
</svg>
